<mxfile host="app.diagrams.net" modified="2023-12-08T02:51:55.170Z" agent="Mozilla/5.0 (Windows NT 10.0; Win64; x64) AppleWebKit/537.36 (KHTML, like Gecko) Chrome/120.0.0.0 Safari/537.36" etag="KUgzQ5E93X1O2Mi9hDM_" version="22.1.7" type="github">
  <diagram name="Página-1" id="3SueJyjgRHZHnrw7n_LL">
    <mxGraphModel dx="1867" dy="730" grid="0" gridSize="10" guides="1" tooltips="1" connect="1" arrows="1" fold="1" page="0" pageScale="1" pageWidth="827" pageHeight="1169" math="0" shadow="0">
      <root>
        <mxCell id="0" />
        <mxCell id="1" parent="0" />
        <mxCell id="StK6_liGXpHOTkDl08R3-5" value="" style="ellipse;html=1;shape=startState;fillColor=#000000;strokeColor=#ff0000;fontSize=16;direction=east;flipV=0;" parent="1" vertex="1">
          <mxGeometry x="-190" y="172" width="30" height="30" as="geometry" />
        </mxCell>
        <mxCell id="StK6_liGXpHOTkDl08R3-6" value="" style="edgeStyle=orthogonalEdgeStyle;html=1;verticalAlign=bottom;endArrow=open;endSize=8;strokeColor=#ff0000;rounded=0;fontSize=12;curved=1;entryX=0.5;entryY=0;entryDx=0;entryDy=0;" parent="1" source="StK6_liGXpHOTkDl08R3-5" edge="1" target="StK6_liGXpHOTkDl08R3-7">
          <mxGeometry relative="1" as="geometry">
            <mxPoint x="-111" y="187.5714285714289" as="targetPoint" />
          </mxGeometry>
        </mxCell>
        <mxCell id="KCtqKOgHuIInQXFW7zM9-2" value="" style="edgeStyle=orthogonalEdgeStyle;rounded=0;orthogonalLoop=1;jettySize=auto;html=1;" edge="1" parent="1" source="StK6_liGXpHOTkDl08R3-7" target="KCtqKOgHuIInQXFW7zM9-1">
          <mxGeometry relative="1" as="geometry" />
        </mxCell>
        <mxCell id="StK6_liGXpHOTkDl08R3-7" value="Iniciar sistema" style="rounded=0;whiteSpace=wrap;html=1;fontSize=16;align=center;direction=east;flipV=0;" parent="1" vertex="1">
          <mxGeometry x="-251.5" y="253" width="153" height="89" as="geometry" />
        </mxCell>
        <mxCell id="StK6_liGXpHOTkDl08R3-11" value="" style="edgeStyle=none;curved=1;rounded=0;orthogonalLoop=1;jettySize=auto;html=1;fontSize=12;startSize=8;endSize=8;" parent="1" source="StK6_liGXpHOTkDl08R3-8" target="StK6_liGXpHOTkDl08R3-10" edge="1">
          <mxGeometry relative="1" as="geometry" />
        </mxCell>
        <mxCell id="StK6_liGXpHOTkDl08R3-8" value="Identificar zona a explorar" style="rounded=0;whiteSpace=wrap;html=1;fontSize=16;align=center;direction=east;flipV=0;" parent="1" vertex="1">
          <mxGeometry x="-261" y="745" width="153" height="89" as="geometry" />
        </mxCell>
        <mxCell id="StK6_liGXpHOTkDl08R3-22" value="" style="edgeStyle=none;curved=1;rounded=0;orthogonalLoop=1;jettySize=auto;html=1;fontSize=12;startSize=8;endSize=8;" parent="1" source="StK6_liGXpHOTkDl08R3-10" target="StK6_liGXpHOTkDl08R3-21" edge="1">
          <mxGeometry relative="1" as="geometry" />
        </mxCell>
        <mxCell id="StK6_liGXpHOTkDl08R3-10" value="Avanzar a la zona de exploración" style="rounded=0;whiteSpace=wrap;html=1;fontSize=16;align=center;direction=east;flipV=0;" parent="1" vertex="1">
          <mxGeometry x="320" y="143" width="153" height="89" as="geometry" />
        </mxCell>
        <mxCell id="StK6_liGXpHOTkDl08R3-27" value="" style="edgeStyle=none;curved=1;rounded=0;orthogonalLoop=1;jettySize=auto;html=1;fontSize=12;startSize=8;endSize=8;" parent="1" source="StK6_liGXpHOTkDl08R3-21" target="StK6_liGXpHOTkDl08R3-25" edge="1">
          <mxGeometry relative="1" as="geometry" />
        </mxCell>
        <mxCell id="StK6_liGXpHOTkDl08R3-21" value="Avanzar a la zona de exploración" style="rounded=0;whiteSpace=wrap;html=1;fontSize=16;align=center;direction=east;flipV=0;" parent="1" vertex="1">
          <mxGeometry x="524" y="143" width="153" height="89" as="geometry" />
        </mxCell>
        <mxCell id="StK6_liGXpHOTkDl08R3-30" value="" style="edgeStyle=none;curved=1;rounded=0;orthogonalLoop=1;jettySize=auto;html=1;fontSize=12;startSize=8;endSize=8;" parent="1" source="StK6_liGXpHOTkDl08R3-25" target="StK6_liGXpHOTkDl08R3-29" edge="1">
          <mxGeometry relative="1" as="geometry" />
        </mxCell>
        <mxCell id="StK6_liGXpHOTkDl08R3-31" value="" style="edgeStyle=none;curved=1;rounded=0;orthogonalLoop=1;jettySize=auto;html=1;fontSize=12;startSize=8;endSize=8;" parent="1" source="StK6_liGXpHOTkDl08R3-25" target="StK6_liGXpHOTkDl08R3-29" edge="1">
          <mxGeometry relative="1" as="geometry" />
        </mxCell>
        <mxCell id="StK6_liGXpHOTkDl08R3-35" value="" style="edgeStyle=none;curved=1;rounded=0;orthogonalLoop=1;jettySize=auto;html=1;fontSize=12;startSize=8;endSize=8;" parent="1" source="StK6_liGXpHOTkDl08R3-25" target="StK6_liGXpHOTkDl08R3-34" edge="1">
          <mxGeometry relative="1" as="geometry" />
        </mxCell>
        <mxCell id="StK6_liGXpHOTkDl08R3-25" value="Hay obstaculo" style="rhombus;whiteSpace=wrap;html=1;fontSize=16;flipH=1;flipV=1;" parent="1" vertex="1">
          <mxGeometry x="627.25" y="312" width="120.5" height="133" as="geometry" />
        </mxCell>
        <mxCell id="StK6_liGXpHOTkDl08R3-33" value="" style="edgeStyle=none;curved=1;rounded=0;orthogonalLoop=1;jettySize=auto;html=1;fontSize=12;startSize=8;endSize=8;" parent="1" source="StK6_liGXpHOTkDl08R3-29" target="StK6_liGXpHOTkDl08R3-32" edge="1">
          <mxGeometry relative="1" as="geometry" />
        </mxCell>
        <mxCell id="StK6_liGXpHOTkDl08R3-29" value="Avanzar" style="whiteSpace=wrap;html=1;fontSize=16;" parent="1" vertex="1">
          <mxGeometry x="446" y="348.5" width="120" height="60" as="geometry" />
        </mxCell>
        <mxCell id="StK6_liGXpHOTkDl08R3-39" value="" style="edgeStyle=none;curved=1;rounded=0;orthogonalLoop=1;jettySize=auto;html=1;fontSize=12;startSize=8;endSize=8;" parent="1" source="StK6_liGXpHOTkDl08R3-32" target="StK6_liGXpHOTkDl08R3-38" edge="1">
          <mxGeometry relative="1" as="geometry" />
        </mxCell>
        <mxCell id="StK6_liGXpHOTkDl08R3-32" value="Escanear entorno (360°)" style="whiteSpace=wrap;html=1;fontSize=16;" parent="1" vertex="1">
          <mxGeometry x="206" y="348.5" width="120" height="60" as="geometry" />
        </mxCell>
        <mxCell id="StK6_liGXpHOTkDl08R3-37" style="edgeStyle=none;curved=1;rounded=0;orthogonalLoop=1;jettySize=auto;html=1;exitX=0;exitY=0.5;exitDx=0;exitDy=0;entryX=0.5;entryY=1;entryDx=0;entryDy=0;fontSize=12;startSize=8;endSize=8;" parent="1" source="StK6_liGXpHOTkDl08R3-34" target="StK6_liGXpHOTkDl08R3-32" edge="1">
          <mxGeometry relative="1" as="geometry" />
        </mxCell>
        <mxCell id="StK6_liGXpHOTkDl08R3-34" value="Rodear obstáculo" style="whiteSpace=wrap;html=1;fontSize=16;" parent="1" vertex="1">
          <mxGeometry x="627" y="501" width="120" height="60" as="geometry" />
        </mxCell>
        <mxCell id="StK6_liGXpHOTkDl08R3-38" value="Seguir avanzando" style="whiteSpace=wrap;html=1;fontSize=16;" parent="1" vertex="1">
          <mxGeometry x="33" y="474" width="120" height="60" as="geometry" />
        </mxCell>
        <mxCell id="StK6_liGXpHOTkDl08R3-44" value="" style="endArrow=none;html=1;rounded=0;fontSize=12;startSize=8;endSize=8;curved=1;entryX=0.5;entryY=1;entryDx=0;entryDy=0;" parent="1" target="StK6_liGXpHOTkDl08R3-38" edge="1">
          <mxGeometry width="50" height="50" relative="1" as="geometry">
            <mxPoint x="93" y="600" as="sourcePoint" />
            <mxPoint x="127" y="404" as="targetPoint" />
          </mxGeometry>
        </mxCell>
        <mxCell id="StK6_liGXpHOTkDl08R3-46" value="" style="endArrow=none;html=1;rounded=0;fontSize=12;startSize=8;endSize=8;curved=1;" parent="1" edge="1">
          <mxGeometry width="50" height="50" relative="1" as="geometry">
            <mxPoint x="93" y="598" as="sourcePoint" />
            <mxPoint x="780" y="598" as="targetPoint" />
          </mxGeometry>
        </mxCell>
        <mxCell id="StK6_liGXpHOTkDl08R3-47" value="" style="endArrow=classic;html=1;rounded=0;fontSize=12;startSize=8;endSize=8;curved=1;entryX=1;entryY=0.5;entryDx=0;entryDy=0;" parent="1" target="StK6_liGXpHOTkDl08R3-25" edge="1">
          <mxGeometry width="50" height="50" relative="1" as="geometry">
            <mxPoint x="780" y="600" as="sourcePoint" />
            <mxPoint x="307" y="369" as="targetPoint" />
          </mxGeometry>
        </mxCell>
        <mxCell id="KCtqKOgHuIInQXFW7zM9-4" value="" style="edgeStyle=orthogonalEdgeStyle;rounded=0;orthogonalLoop=1;jettySize=auto;html=1;" edge="1" parent="1" source="KCtqKOgHuIInQXFW7zM9-1" target="KCtqKOgHuIInQXFW7zM9-3">
          <mxGeometry relative="1" as="geometry" />
        </mxCell>
        <mxCell id="KCtqKOgHuIInQXFW7zM9-1" value="Hacer diagnostico" style="whiteSpace=wrap;html=1;fontSize=16;rounded=0;" vertex="1" parent="1">
          <mxGeometry x="-249.5" y="380" width="149" height="76" as="geometry" />
        </mxCell>
        <mxCell id="KCtqKOgHuIInQXFW7zM9-14" style="edgeStyle=orthogonalEdgeStyle;rounded=0;orthogonalLoop=1;jettySize=auto;html=1;exitX=0.5;exitY=1;exitDx=0;exitDy=0;" edge="1" parent="1" source="KCtqKOgHuIInQXFW7zM9-3" target="StK6_liGXpHOTkDl08R3-8">
          <mxGeometry relative="1" as="geometry" />
        </mxCell>
        <mxCell id="KCtqKOgHuIInQXFW7zM9-3" value="Todo en órden" style="rhombus;whiteSpace=wrap;html=1;fontSize=16;rounded=0;" vertex="1" parent="1">
          <mxGeometry x="-244.5" y="487" width="139" height="140" as="geometry" />
        </mxCell>
        <mxCell id="KCtqKOgHuIInQXFW7zM9-7" value="&lt;font style=&quot;font-size: 25px;&quot;&gt;Si&lt;/font&gt;" style="text;html=1;strokeColor=none;fillColor=none;align=center;verticalAlign=middle;whiteSpace=wrap;rounded=0;rotation=0;labelBorderColor=default;" vertex="1" parent="1">
          <mxGeometry x="-229" y="670" width="99" height="52" as="geometry" />
        </mxCell>
      </root>
    </mxGraphModel>
  </diagram>
</mxfile>
